<mxfile host="65bd71144e">
    <diagram id="Rycla2uOgZOv4OuO8k2w" name="第 1 页">
        <mxGraphModel dx="1960" dy="1648" grid="1" gridSize="10" guides="1" tooltips="1" connect="1" arrows="1" fold="1" page="1" pageScale="1" pageWidth="827" pageHeight="1169" math="0" shadow="0">
            <root>
                <mxCell id="0"/>
                <mxCell id="1" parent="0"/>
                <mxCell id="2" value="" style="rounded=1;whiteSpace=wrap;html=1;aspect=fixed;" parent="1" vertex="1">
                    <mxGeometry x="240" y="80" width="1920" height="1080" as="geometry"/>
                </mxCell>
                <mxCell id="3" value="" style="rounded=1;whiteSpace=wrap;html=1;" parent="1" vertex="1">
                    <mxGeometry x="310" y="160" width="90" height="940" as="geometry"/>
                </mxCell>
                <mxCell id="4" value="" style="rounded=1;whiteSpace=wrap;html=1;" parent="1" vertex="1">
                    <mxGeometry x="420" y="160" width="1680" height="930" as="geometry"/>
                </mxCell>
                <mxCell id="5" value="" style="rounded=1;whiteSpace=wrap;html=1;" parent="1" vertex="1">
                    <mxGeometry x="320" y="210" width="60" height="60" as="geometry"/>
                </mxCell>
                <mxCell id="6" value="" style="rounded=1;whiteSpace=wrap;html=1;" parent="1" vertex="1">
                    <mxGeometry x="320" y="300" width="60" height="60" as="geometry"/>
                </mxCell>
                <mxCell id="7" value="" style="rounded=1;whiteSpace=wrap;html=1;" parent="1" vertex="1">
                    <mxGeometry x="320" y="400" width="60" height="60" as="geometry"/>
                </mxCell>
                <mxCell id="8" value="" style="rounded=1;whiteSpace=wrap;html=1;" parent="1" vertex="1">
                    <mxGeometry x="320" y="490" width="60" height="60" as="geometry"/>
                </mxCell>
                <mxCell id="9" value="......" style="text;html=1;align=center;verticalAlign=middle;whiteSpace=wrap;rounded=0;fontSize=43;" parent="1" vertex="1">
                    <mxGeometry x="280" y="570" width="150" height="30" as="geometry"/>
                </mxCell>
                <mxCell id="14" value="" style="rounded=1;whiteSpace=wrap;html=1;" parent="1" vertex="1">
                    <mxGeometry x="460" y="230" width="190" height="830" as="geometry"/>
                </mxCell>
                <mxCell id="16" value="" style="endArrow=none;html=1;exitX=-0.01;exitY=0.347;exitDx=0;exitDy=0;exitPerimeter=0;entryX=1.033;entryY=0.345;entryDx=0;entryDy=0;entryPerimeter=0;" parent="1" source="14" target="14" edge="1">
                    <mxGeometry width="50" height="50" relative="1" as="geometry">
                        <mxPoint x="1120" y="460" as="sourcePoint"/>
                        <mxPoint x="1170" y="410" as="targetPoint"/>
                    </mxGeometry>
                </mxCell>
                <mxCell id="17" value="" style="rounded=0;whiteSpace=wrap;html=1;" parent="1" vertex="1">
                    <mxGeometry x="470" y="555" width="170" height="35" as="geometry"/>
                </mxCell>
                <mxCell id="18" value="" style="rounded=0;whiteSpace=wrap;html=1;" parent="1" vertex="1">
                    <mxGeometry x="470" y="612.5" width="170" height="35" as="geometry"/>
                </mxCell>
                <mxCell id="19" value="" style="rounded=0;whiteSpace=wrap;html=1;" parent="1" vertex="1">
                    <mxGeometry x="470" y="680" width="170" height="35" as="geometry"/>
                </mxCell>
                <mxCell id="20" value="" style="rounded=0;whiteSpace=wrap;html=1;" parent="1" vertex="1">
                    <mxGeometry x="470" y="740" width="170" height="35" as="geometry"/>
                </mxCell>
                <mxCell id="21" value="" style="rounded=0;whiteSpace=wrap;html=1;" vertex="1" parent="1">
                    <mxGeometry x="690" y="230" width="1360" height="830" as="geometry"/>
                </mxCell>
                <mxCell id="22" value="&lt;font style=&quot;font-size: 40px;&quot;&gt;帖子&lt;/font&gt;" style="rounded=0;whiteSpace=wrap;html=1;" vertex="1" parent="1">
                    <mxGeometry x="760" y="320" width="820" height="240" as="geometry"/>
                </mxCell>
                <mxCell id="23" value="" style="rounded=0;whiteSpace=wrap;html=1;" vertex="1" parent="1">
                    <mxGeometry x="760" y="595" width="820" height="215" as="geometry"/>
                </mxCell>
                <mxCell id="24" value="" style="rounded=0;whiteSpace=wrap;html=1;" vertex="1" parent="1">
                    <mxGeometry x="760" y="840" width="820" height="190" as="geometry"/>
                </mxCell>
                <mxCell id="25" value="" style="rounded=0;whiteSpace=wrap;html=1;" vertex="1" parent="1">
                    <mxGeometry x="1790" y="320" width="190" height="700" as="geometry"/>
                </mxCell>
                <mxCell id="26" value="" style="rounded=0;whiteSpace=wrap;html=1;" vertex="1" parent="1">
                    <mxGeometry x="1825" y="410" width="120" height="30" as="geometry"/>
                </mxCell>
                <mxCell id="27" value="" style="rounded=0;whiteSpace=wrap;html=1;" vertex="1" parent="1">
                    <mxGeometry x="1825" y="470" width="120" height="30" as="geometry"/>
                </mxCell>
                <mxCell id="28" value="" style="rounded=0;whiteSpace=wrap;html=1;" vertex="1" parent="1">
                    <mxGeometry x="1825" y="540" width="120" height="30" as="geometry"/>
                </mxCell>
                <mxCell id="29" value="" style="rounded=0;whiteSpace=wrap;html=1;" vertex="1" parent="1">
                    <mxGeometry x="1825" y="600" width="120" height="30" as="geometry"/>
                </mxCell>
                <mxCell id="30" value="" style="rounded=0;whiteSpace=wrap;html=1;" vertex="1" parent="1">
                    <mxGeometry x="1825" y="660" width="120" height="30" as="geometry"/>
                </mxCell>
                <mxCell id="31" value="" style="rounded=0;whiteSpace=wrap;html=1;" vertex="1" parent="1">
                    <mxGeometry x="1825" y="720" width="120" height="30" as="geometry"/>
                </mxCell>
                <mxCell id="34" value="&lt;font style=&quot;font-size: 27px;&quot;&gt;在线玩家列表&lt;/font&gt;" style="text;html=1;align=center;verticalAlign=middle;whiteSpace=wrap;rounded=0;" vertex="1" parent="1">
                    <mxGeometry x="1840" y="360" width="110" height="30" as="geometry"/>
                </mxCell>
                <mxCell id="35" value="&lt;font style=&quot;font-size: 29px;&quot;&gt;频道&lt;/font&gt;" style="text;html=1;align=center;verticalAlign=middle;whiteSpace=wrap;rounded=0;" vertex="1" parent="1">
                    <mxGeometry x="530" y="830" width="60" height="30" as="geometry"/>
                </mxCell>
                <mxCell id="36" value="&lt;font style=&quot;font-size: 29px;&quot;&gt;自定义展示图&lt;/font&gt;" style="text;html=1;align=center;verticalAlign=middle;whiteSpace=wrap;rounded=0;" vertex="1" parent="1">
                    <mxGeometry x="490" y="350" width="110" height="30" as="geometry"/>
                </mxCell>
                <mxCell id="37" value="&lt;font style=&quot;font-size: 23px;&quot;&gt;服务器列表&lt;/font&gt;" style="text;html=1;align=center;verticalAlign=middle;whiteSpace=wrap;rounded=0;" vertex="1" parent="1">
                    <mxGeometry x="325" y="680" width="60" height="30" as="geometry"/>
                </mxCell>
            </root>
        </mxGraphModel>
    </diagram>
</mxfile>